<svg id="圖層_1" data-name="圖層 1" xmlns="http://www.w3.org/2000/svg" viewBox="0 0 48 48"><defs><style>.cls-1{fill:#f2691d;}</style></defs><path class="cls-1" d="M38.14,9.88c.91,2.36,1.21,19.54-.46,22.17-2.36,3.66-11.34,15.21-15.53,15.36H21.9c-2.16-.15-5.49-2.94-7.51-2.87a5.88,5.88,0,0,0-2.5,1.12,2.81,2.81,0,0,1-1.28.75c-.3,0-.44-.27-.43-.92,0-1.42,1.18-3.18,2.58-4.89A19,19,0,0,1,15,38.13a5,5,0,0,1,0-1.26c.36-2.7.54-6.7.62-10.58a4.49,4.49,0,0,0-1.6-.46c-2,.07-2,.42-3.73,1.79a1.09,1.09,0,0,1-.62.31c-.63,0-.73-1.1,0-2.11,1.66-2.23,3.38-5.09,6-5.53a25.61,25.61,0,0,1,.45-6.81A9.73,9.73,0,0,1,18.7,10C15,9.69,13.85,7.85,12.51,4.19c-.23-.68-.16-1.71.6-1.74,1.06,0,1,.43,1.9,1a4.54,4.54,0,0,0,2.49.51,13.12,13.12,0,0,0,4-.92c2.8-1.07,4.62-1.42,7.06-2.19A3.83,3.83,0,0,1,29.76.59C33.64.45,36.75,6,38.14,9.88ZM31.46,32.5c.36-3.1.71-14.81-.19-17.52a16.82,16.82,0,0,0-3.35-5.09,3.37,3.37,0,0,0-2.66-1.16A3.45,3.45,0,0,0,24.13,9,13.65,13.65,0,0,1,22,9.72c-.05,2.34-.47,5.61-.41,7.55.16,9,.17,11.3,0,14a8.41,8.41,0,0,1-2.9,5.87,15.44,15.44,0,0,1,3.81,1.7c1.1.63,2.2,1.24,3.33,1.81,0,.06,5.25-4.87,5.63-8.14"/></svg>